<?xml version="1.0" standalone="no"?>
<!DOCTYPE svg PUBLIC "-//W3C//DTD SVG 20010904//EN"
 "http://www.w3.org/TR/2001/REC-SVG-20010904/DTD/svg10.dtd">
<svg version="1.0" xmlns="http://www.w3.org/2000/svg"
 width="61.000000pt" height="60.000000pt" viewBox="0 0 61.000000 60.000000"
 preserveAspectRatio="xMidYMid meet">

<g transform="translate(0.000000,60.000000) scale(0.100000,-0.100000)"
fill="#000000" stroke="none">
<path d="M261 544 c0 -11 3 -14 6 -6 3 7 2 16 -1 19 -3 4 -6 -2 -5 -13z"/>
<path d="M440 511 c0 -6 4 -13 10 -16 6 -3 7 1 4 9 -7 18 -14 21 -14 7z"/>
<path d="M165 500 c3 -5 8 -10 11 -10 2 0 4 5 4 10 0 6 -5 10 -11 10 -5 0 -7
-4 -4 -10z"/>
<path d="M472 466 c7 -8 15 -12 17 -11 5 6 -10 25 -20 25 -5 0 -4 -6 3 -14z"/>
<path d="M159 443 c-13 -16 -12 -17 4 -4 16 13 21 21 13 21 -2 0 -10 -8 -17
-17z"/>
<path d="M192 438 c-15 -15 -15 -28 0 -28 6 0 8 3 5 7 -4 3 -2 12 4 20 14 16
7 17 -9 1z"/>
<path d="M227 429 c4 -13 8 -18 11 -10 2 7 -1 18 -6 23 -8 8 -9 4 -5 -13z"/>
<path d="M206 403 c-6 -14 -5 -15 5 -6 7 7 10 15 7 18 -3 3 -9 -2 -12 -12z"/>
<path d="M318 403 c6 -2 12 -11 12 -19 0 -8 5 -14 10 -14 6 0 11 -10 11 -22 1
-16 3 -18 6 -6 5 20 -24 68 -41 67 -7 0 -6 -2 2 -6z"/>
<path d="M190 353 c0 -24 7 -37 25 -49 19 -12 23 -20 15 -29 -8 -10 -6 -24 6
-52 10 -21 21 -49 26 -63 6 -22 7 -21 4 8 -1 18 3 37 11 43 7 6 13 17 13 23 0
6 -7 2 -15 -8 -20 -27 -42 -8 -26 22 9 17 21 21 61 20 28 0 50 -4 50 -10 0 -6
-13 -8 -30 -6 -16 3 -30 1 -30 -4 0 -4 14 -8 30 -8 22 0 33 6 40 23 9 21 9 21
9 -4 1 -20 7 -28 25 -31 26 -5 42 14 30 34 -4 6 -1 14 6 18 11 7 11 11 -1 22
-16 15 -59 19 -59 5 0 -5 -7 -7 -14 -4 -10 4 -13 1 -9 -9 4 -11 -5 -14 -46
-14 -28 0 -51 4 -51 8 0 4 -14 13 -31 19 -24 9 -30 17 -26 32 2 10 1 25 -4 32
-6 10 -9 4 -9 -18z m228 -82 c8 -23 7 -29 -4 -27 -21 3 -26 13 -19 35 8 27 11
27 23 -8z"/>
<path d="M219 378 c-9 -32 -6 -35 33 -28 31 6 41 4 45 -8 4 -8 -1 -20 -11 -27
-15 -12 -15 -13 0 -19 23 -9 31 -7 14 4 -10 6 -11 10 -2 10 15 0 16 32 1 47
-7 7 -26 10 -43 7 -25 -3 -27 -3 -11 5 19 9 19 10 -2 10 -13 1 -23 0 -24 -1z"/>
<path d="M50 358 c-12 -8 -12 -9 2 -5 9 3 19 1 22 -6 3 -9 5 -9 5 0 1 18 -13
23 -29 11z"/>
<path d="M552 354 c-7 -8 -8 -14 -3 -14 10 0 25 19 20 25 -2 1 -10 -3 -17 -11z"/>
<path d="M260 335 c-15 -8 -19 -14 -10 -14 18 -1 46 16 40 23 -3 2 -16 -2 -30
-9z"/>
<path d="M320 300 c0 -5 5 -10 11 -10 5 0 7 5 4 10 -3 6 -8 10 -11 10 -2 0 -4
-4 -4 -10z"/>
<path d="M549 247 c6 -8 8 -17 4 -20 -3 -4 -1 -7 6 -7 7 0 11 6 8 14 -3 8 -1
17 6 20 7 2 1 5 -12 5 -18 1 -21 -2 -12 -12z"/>
<path d="M70 220 c-9 -6 -10 -10 -3 -10 6 0 15 5 18 10 8 12 4 12 -15 0z"/>
<path d="M377 200 c-11 -40 -8 -60 8 -60 9 0 15 9 15 23 0 13 6 29 13 37 10
12 9 12 -5 1 -14 -10 -17 -9 -20 6 -3 14 -5 13 -11 -7z m10 -42 c-3 -8 -6 -5
-6 6 -1 11 2 17 5 13 3 -3 4 -12 1 -19z"/>
<path d="M287 188 c-10 -36 -8 -48 8 -48 8 0 15 9 15 20 0 25 37 27 43 3 3
-14 4 -13 3 2 -1 13 -9 21 -26 24 -14 1 -28 7 -31 13 -3 5 -9 -1 -12 -14z m10
-30 c-3 -8 -6 -5 -6 6 -1 11 2 17 5 13 3 -3 4 -12 1 -19z"/>
<path d="M100 159 c0 -5 5 -7 10 -4 6 3 10 8 10 11 0 2 -4 4 -10 4 -5 0 -10
-5 -10 -11z"/>
<path d="M150 166 c0 -2 8 -10 18 -17 15 -13 16 -12 3 4 -13 16 -21 21 -21 13z"/>
<path d="M400 80 c-13 -8 -12 -10 3 -10 9 0 17 5 17 10 0 12 -1 12 -20 0z"/>
<path d="M435 80 c3 -5 8 -10 11 -10 2 0 4 5 4 10 0 6 -5 10 -11 10 -5 0 -7
-4 -4 -10z"/>
<path d="M225 69 c-4 -6 -5 -12 -2 -15 2 -3 7 2 10 11 7 17 1 20 -8 4z"/>
<path d="M271 44 c0 -11 3 -14 6 -6 3 7 2 16 -1 19 -3 4 -6 -2 -5 -13z"/>
</g>
</svg>
