<svg width="676" height="905" viewBox="0 0 676 905" fill="none" xmlns="http://www.w3.org/2000/svg">
<mask id="mask0_175_159" style="mask-type:alpha" maskUnits="userSpaceOnUse" x="0" y="0" width="676" height="905">
<rect width="676" height="905" fill="#FFF4F3"/>
</mask>
<g mask="url(#mask0_175_159)">
<path d="M-143.663 1010.64C-146.116 998.274 -142.799 962.631 -109.9 919.017C-68.7769 864.501 -17.3289 875.074 32.755 865.518C82.8388 855.962 245.795 839.368 312.072 751.507C378.348 663.645 325.753 560.857 376.536 484.561C427.318 408.265 535.637 400.284 588.738 329.889C641.839 259.494 537.856 82.2337 615.312 -20.4477C677.276 -102.593 734.681 -117.533 755.638 -114.735" stroke="#EAD1D0" stroke-width="4" stroke-linecap="round" stroke-dasharray="8 8"/>
<path d="M-26.0643 1103.24C-31.0037 1091.63 -35.0702 1056.07 -11.8204 1006.63C17.2419 944.837 69.7647 944.629 116.822 925C163.88 905.37 319.964 855.694 366.802 756.103C413.641 656.512 341.075 566.703 375.122 481.61C409.169 396.518 513.546 366.481 551.073 286.688C588.6 206.896 450.459 54.7422 505.197 -61.6471C548.988 -154.759 602.106 -181.16 623.191 -182.721" stroke="#EAD1D0" stroke-width="4" stroke-linecap="round" stroke-dasharray="8 8"/>
</g>
</svg>
